<svg width="271" height="248" viewBox="0 0 271 248" fill="none" xmlns="http://www.w3.org/2000/svg">
<path d="M0 14C0 6.26802 6.26801 0 14 0H147C215.483 0 271 55.5167 271 124V124C271 192.483 215.483 248 147 248H14C6.26802 248 0 241.732 0 234V14Z" fill="#5390D9"/>
<path d="M0 62H144C195.362 62 237 103.638 237 155V155C237 206.362 195.362 248 144 248H14C6.26801 248 0 241.732 0 234V62Z" fill="#5E60CE"/>
<path d="M0 124H143C177.242 124 205 151.758 205 186V186C205 220.242 177.242 248 143 248H14C6.26801 248 0 241.732 0 234V124Z" fill="#6930C3"/>
<path d="M0 186H142C159.121 186 173 199.879 173 217V217C173 234.121 159.121 248 142 248H14C6.26802 248 0 241.732 0 234V186Z" fill="#7400B8"/>
</svg>
