<svg width="18" height="18" viewBox="0 0 18 18" fill="none" xmlns="http://www.w3.org/2000/svg">
<g opacity="0.8">
<path d="M5 2H2.6C1.716 2 1 2.67125 1 3.5C1 4.32875 1.616 5.5 2.5 5.5" stroke="white" stroke-width="1.5" stroke-linecap="round"/>
<path d="M5 5V2C5 1.44772 5.44772 1 6 1H14C14.5523 1 15 1.44772 15 2V5" stroke="white" stroke-width="1.5" stroke-linecap="round"/>
<path fill-rule="evenodd" clip-rule="evenodd" d="M17 6.44445C17 5.89216 16.5523 5.44444 16 5.44444H2.45455C1.65091 5.44444 1 4.79806 1 4V14.8333C1 16.0301 1.97673 17 3.18182 17H16C16.5523 17 17 16.5523 17 16V6.44445Z" stroke="white" stroke-width="1.5" stroke-linecap="square"/>
<path d="M12.5 13C13.3284 13 14 12.3284 14 11.5C14 10.6716 13.3284 10 12.5 10C11.6716 10 11 10.6716 11 11.5C11 12.3284 11.6716 13 12.5 13Z" stroke="white" stroke-width="1.5" stroke-linecap="square"/>
</g>
</svg>
