<svg width="24" height="24" viewBox="0 0 24 24" fill="none" xmlns="http://www.w3.org/2000/svg">
<path d="M19.2002 6.99963H18.8102C18.93 6.67955 18.9943 6.34135 19.0002 5.99963C18.9792 5.18622 18.6372 4.41415 18.0489 3.85206C17.4606 3.28996 16.6737 2.98351 15.8602 2.99963C15.0607 3.01689 14.2806 3.24878 13.6015 3.67101C12.9224 4.09325 12.3694 4.69029 12.0002 5.39963C11.631 4.69029 11.078 4.09325 10.3989 3.67101C9.71979 3.24878 8.93967 3.01689 8.1402 2.99963C7.32668 2.98351 6.53983 3.28996 5.9515 3.85206C5.36318 4.41415 5.02118 5.18622 5.0002 5.99963C5.00611 6.34135 5.07037 6.67955 5.1902 6.99963H4.8002C4.53706 7.02461 4.28148 7.10151 4.04824 7.22588C3.815 7.35025 3.60873 7.51962 3.44134 7.7242C3.27396 7.92877 3.14879 8.1645 3.07307 8.41775C2.99735 8.671 2.97259 8.93675 3.0002 9.19963V12.7996C2.95349 13.2839 3.07798 13.7692 3.35204 14.1711C3.62609 14.5731 4.03237 14.8662 4.5002 14.9996V19.3696C4.53107 19.8232 4.73725 20.247 5.07508 20.5512C5.41291 20.8554 5.85588 21.0163 6.3102 20.9996H17.6902C18.1511 21.0159 18.5997 20.8496 18.9387 20.5369C19.2776 20.2242 19.4794 19.7903 19.5002 19.3296V14.9996C19.968 14.8662 20.3743 14.5731 20.6484 14.1711C20.9224 13.7692 21.0469 13.2839 21.0002 12.7996V9.19963C21.0278 8.93675 21.0031 8.671 20.9273 8.41775C20.8516 8.1645 20.7264 7.92877 20.5591 7.7242C20.3917 7.51962 20.1854 7.35025 19.9522 7.22588C19.7189 7.10151 19.4633 7.02461 19.2002 6.99963ZM19.0002 9.19963V12.7996C19.0122 12.8658 19.0122 12.9335 19.0002 12.9996H13.0002V8.99963H19.0002C19.0122 9.06575 19.0122 9.1335 19.0002 9.19963ZM15.8602 4.99963C16.1435 4.98312 16.4219 5.07877 16.6352 5.2659C16.8486 5.45303 16.9797 5.7166 17.0002 5.99963C16.9797 6.28266 16.8486 6.54623 16.6352 6.73336C16.4219 6.92049 16.1435 7.01614 15.8602 6.99963H13.4002C13.5752 6.4654 13.9001 5.99278 14.3363 5.63816C14.7725 5.28354 15.3015 5.06188 15.8602 4.99963ZM7.0002 5.99963C7.02074 5.7166 7.15185 5.45303 7.36518 5.2659C7.57851 5.07877 7.85691 4.98312 8.1402 4.99963C8.69712 5.06369 9.22396 5.28617 9.65823 5.64068C10.0925 5.99518 10.4159 6.46682 10.5902 6.99963H8.1402C7.85691 7.01614 7.57851 6.92049 7.36518 6.73336C7.15185 6.54623 7.02074 6.28266 7.0002 5.99963ZM5.0002 9.19963C4.9882 9.1335 4.9882 9.06575 5.0002 8.99963H11.0002V12.9996H5.0002C4.9882 12.9335 4.9882 12.8658 5.0002 12.7996V9.19963ZM6.5002 14.9996H11.0002V18.9996H6.5002V14.9996ZM13.0002 18.9996V14.9996H17.5002V18.9996H13.0002Z" fill="#874FFF"/>
</svg>
